<svg width="91" height="25" viewBox="0 0 91 25" fill="none" xmlns="http://www.w3.org/2000/svg">
<path d="M20.256 24.48L13.536 17.792L16.224 15.104L22.912 21.792L20.256 24.48ZM12.128 24.48C9.824 24.48 7.83467 23.9787 6.16 22.976C4.496 21.9733 3.21067 20.5707 2.304 18.768C1.408 16.9653 0.96 14.8693 0.96 12.48C0.96 10.0907 1.408 7.99467 2.304 6.192C3.21067 4.38933 4.496 2.98667 6.16 1.984C7.83467 0.981333 9.824 0.48 12.128 0.48C14.432 0.48 16.416 0.981333 18.08 1.984C19.7547 2.98667 21.04 4.38933 21.936 6.192C22.8427 7.99467 23.296 10.0907 23.296 12.48C23.296 14.8693 22.8427 16.9653 21.936 18.768C21.04 20.5707 19.7547 21.9733 18.08 22.976C16.416 23.9787 14.432 24.48 12.128 24.48ZM12.128 20.384C13.5893 20.4053 14.8053 20.0907 15.776 19.44C16.7467 18.7893 17.472 17.8667 17.952 16.672C18.4427 15.4773 18.688 14.08 18.688 12.48C18.688 10.88 18.4427 9.49333 17.952 8.32C17.472 7.14667 16.7467 6.23467 15.776 5.584C14.8053 4.93333 13.5893 4.59733 12.128 4.576C10.6667 4.55467 9.45067 4.86933 8.48 5.52C7.50933 6.17067 6.77867 7.09333 6.288 8.288C5.808 9.48267 5.568 10.88 5.568 12.48C5.568 14.08 5.808 15.4667 6.288 16.64C6.77867 17.8133 7.50933 18.7253 8.48 19.376C9.45067 20.0267 10.6667 20.3627 12.128 20.384Z" fill="#03E26A"/>
<path d="M32.922 24.512C31.5673 24.512 30.4633 24.2827 29.61 23.824C28.7567 23.3653 28.09 22.784 27.61 22.08C27.1407 21.376 26.8047 20.6453 26.602 19.888C26.3993 19.12 26.2767 18.4213 26.234 17.792C26.1913 17.1627 26.17 16.704 26.17 16.416V6.72H30.586V14.88C30.586 15.2747 30.6073 15.7813 30.65 16.4C30.6927 17.008 30.826 17.6213 31.05 18.24C31.274 18.8587 31.6367 19.376 32.138 19.792C32.65 20.208 33.37 20.416 34.298 20.416C34.6713 20.416 35.0713 20.3573 35.498 20.24C35.9247 20.1227 36.3247 19.8987 36.698 19.568C37.0713 19.2267 37.3753 18.7307 37.61 18.08C37.8553 17.4187 37.978 16.5547 37.978 15.488L40.474 16.672C40.474 18.0373 40.1967 19.3173 39.642 20.512C39.0873 21.7067 38.25 22.672 37.13 23.408C36.0207 24.144 34.618 24.512 32.922 24.512ZM38.522 24V18.272H37.978V6.72H42.362V24H38.522ZM47.1538 4.32V0.48H51.5058V4.32H47.1538ZM47.1538 24V6.72H51.5058V24H47.1538ZM60.9745 24L54.7025 6.72H59.0545L63.1505 18.688L67.2465 6.72H71.5985L65.3265 24H60.9745ZM81.641 24.48C79.9023 24.48 78.377 24.0907 77.065 23.312C75.753 22.5333 74.729 21.4613 73.993 20.096C73.2677 18.72 72.905 17.1413 72.905 15.36C72.905 13.5573 73.2783 11.9733 74.025 10.608C74.7717 9.232 75.801 8.16 77.113 7.392C78.425 6.624 79.9343 6.24 81.641 6.24C83.3797 6.24 84.905 6.62933 86.217 7.408C87.5397 8.18667 88.569 9.264 89.305 10.64C90.041 12.0053 90.409 13.5787 90.409 15.36C90.409 17.152 90.0357 18.736 89.289 20.112C88.553 21.4773 87.5237 22.5493 86.201 23.328C84.889 24.096 83.369 24.48 81.641 24.48ZM81.641 20.416C83.0383 20.416 84.0783 19.9467 84.761 19.008C85.4543 18.0587 85.801 16.8427 85.801 15.36C85.801 13.824 85.449 12.5973 84.745 11.68C84.0517 10.7627 83.017 10.304 81.641 10.304C80.6917 10.304 79.913 10.5173 79.305 10.944C78.697 11.3707 78.2437 11.9627 77.945 12.72C77.657 13.4773 77.513 14.3573 77.513 15.36C77.513 16.9067 77.8597 18.1387 78.553 19.056C79.257 19.9627 80.2863 20.416 81.641 20.416Z" fill="white"/>
</svg>
