<svg width="579" height="545" viewBox="0 0 579 545" fill="none" xmlns="http://www.w3.org/2000/svg">
<path opacity="0.2" d="M257.661 143.659L116.338 63.7319L115.682 136.971L257.005 216.898L257.661 143.659Z" fill="url(#paint0_linear_11_10)"/>
<path opacity="0.15" d="M152.341 101.827L194.836 125.89L194.771 134.676L152.275 110.613L152.341 101.827Z" fill="white"/>
<path opacity="0.15" d="M152.21 119.465L242.709 170.673L242.644 179.59L152.144 128.382L152.21 119.465Z" fill="white"/>
<path d="M144.799 104.515C144.734 110.547 141.127 113.432 136.667 110.875C132.208 108.384 128.667 101.433 128.732 95.4013C128.798 89.369 132.405 86.484 136.864 89.0412C141.324 91.5327 144.865 98.4829 144.799 104.515Z" fill="#00A54C"/>
<path opacity="0.2" d="M579 471.761L437.742 391.833L437.086 465.073L578.41 545L579 471.761Z" fill="url(#paint1_linear_11_10)"/>
<path opacity="0.15" d="M473.745 429.928L516.24 453.992L516.175 462.778L473.679 438.715L473.745 429.928Z" fill="white"/>
<path opacity="0.15" d="M473.614 447.566L564.113 498.775L564.048 507.692L473.548 456.483L473.614 447.566Z" fill="white"/>
<path d="M466.203 432.617C466.138 438.649 462.531 441.534 458.072 438.977C453.612 436.485 450.071 429.535 450.136 423.503C450.202 417.47 453.809 414.585 458.268 417.143C462.728 419.634 466.269 426.584 466.203 432.617Z" fill="#00A54C"/>
<path opacity="0.1" d="M414.199 2.88499C387.574 8.06485 327.7 14.7528 301.599 0C301.796 104.384 327.372 252.502 410.986 374.655C495.911 347.837 523.782 230.012 525.749 126.874C499.649 112.055 440.496 38.0294 414.199 2.88499Z" fill="url(#paint2_linear_11_10)"/>
<path opacity="0.3" d="M381.672 24.5224C355.046 29.7022 295.172 36.3902 269.072 21.6374C269.269 126.021 294.845 274.139 378.458 396.292C463.383 369.475 491.255 251.584 493.222 148.511C467.122 133.693 407.969 59.6667 381.672 24.5224Z" fill="url(#paint3_linear_11_10)"/>
<path opacity="0.4" d="M493.288 148.446C467.122 133.627 408.035 59.6667 381.737 24.5223L378.524 396.227C463.384 369.475 491.255 251.584 493.288 148.446Z" fill="url(#paint4_linear_11_10)"/>
<path opacity="0.1" d="M239.693 221.75L371.31 294.203L371.376 535.952L239.758 463.565L239.693 221.75Z" fill="url(#paint5_linear_11_10)"/>
<path opacity="0.2" d="M256.743 363.049L355.965 417.667L356.227 504.348L257.005 449.73L256.743 363.049Z" fill="url(#paint6_linear_11_10)"/>
<path opacity="0.15" d="M258.514 305.349L304.419 330.593V339.51L258.514 314.267V305.349Z" fill="white"/>
<path opacity="0.15" d="M258.71 323.053L304.616 348.296V357.214L258.71 331.97V323.053Z" fill="white"/>
<path opacity="0.15" d="M258.645 340.1L345.734 388.031V396.948L258.645 349.018V340.1Z" fill="white"/>
<path opacity="0.2" d="M239.693 221.75L371.31 294.203L371.441 335.97L239.758 263.583L239.693 221.75Z" fill="url(#paint7_linear_11_10)"/>
<path opacity="0.2" d="M272.613 261.026C272.613 267.32 268.875 270.402 264.285 267.845C259.694 265.287 255.891 258.141 255.891 251.781C255.891 245.486 259.629 242.404 264.219 244.961C268.875 247.519 272.613 254.731 272.613 261.026Z" fill="white"/>
<path d="M317.863 362.262L317.732 326.331L406.985 375.442L407.117 411.373L317.863 362.262Z" fill="#00A54C"/>
<path opacity="0.3" d="M215.953 210.538L20.7888 97.9583L20.8544 199.654L198.771 302.333L216.018 327.839L215.953 210.538Z" fill="url(#paint8_linear_11_10)"/>
<path d="M0 137.561V109.957L73.6456 152.445V180.049L0 137.561Z" fill="#00A54C"/>
<path opacity="0.15" d="M165.785 206.342L123.027 181.689V190.606L165.785 215.259V206.342Z" fill="white"/>
<path opacity="0.15" d="M165.785 224.242L83.3514 176.705V185.623L165.785 233.159V224.242Z" fill="white"/>
<path opacity="0.15" d="M165.785 242.076L65.9072 184.442V193.36L165.785 250.994V242.076Z" fill="white"/>
<path d="M176.277 221.75C176.277 230.143 181.261 239.782 187.36 243.322C193.459 246.863 198.443 242.929 198.443 234.536C198.443 226.143 193.459 216.505 187.36 212.964C181.261 209.424 176.277 213.358 176.277 221.75Z" fill="#00A54C"/>
<path opacity="0.2" d="M153.128 315.316C157.063 317.545 160.21 323.053 160.21 327.577V347.575L173.457 355.181C177.392 357.41 180.54 362.918 180.54 367.442C180.54 371.966 177.392 373.802 173.457 371.573L160.21 363.967V383.965C160.21 388.489 157.063 390.325 153.128 388.096C149.193 385.867 146.045 380.359 146.045 375.835V355.837L132.798 348.165C128.864 345.936 125.716 340.428 125.716 335.904C125.716 331.38 128.864 329.544 132.798 331.773L146.045 339.379V319.381C146.045 314.922 149.193 313.086 153.128 315.316Z" fill="url(#paint9_linear_11_10)"/>
<defs>
<linearGradient id="paint0_linear_11_10" x1="202.438" y1="112.426" x2="170.897" y2="168.176" gradientUnits="userSpaceOnUse">
<stop stop-color="white"/>
<stop offset="1" stop-color="white" stop-opacity="0"/>
</linearGradient>
<linearGradient id="paint1_linear_11_10" x1="523.829" y1="440.533" x2="492.288" y2="496.283" gradientUnits="userSpaceOnUse">
<stop stop-color="white"/>
<stop offset="1" stop-color="white" stop-opacity="0"/>
</linearGradient>
<linearGradient id="paint2_linear_11_10" x1="242.548" y1="36.599" x2="425.198" y2="200.099" gradientUnits="userSpaceOnUse">
<stop stop-color="white"/>
<stop offset="1" stop-color="white" stop-opacity="0"/>
</linearGradient>
<linearGradient id="paint3_linear_11_10" x1="210.027" y1="58.2187" x2="392.677" y2="221.718" gradientUnits="userSpaceOnUse">
<stop stop-color="white"/>
<stop offset="1" stop-color="white" stop-opacity="0"/>
</linearGradient>
<linearGradient id="paint4_linear_11_10" x1="502.761" y1="186.907" x2="356.219" y2="214.959" gradientUnits="userSpaceOnUse">
<stop stop-color="white"/>
<stop offset="1" stop-color="white" stop-opacity="0"/>
</linearGradient>
<linearGradient id="paint5_linear_11_10" x1="240.475" y1="315.765" x2="378.474" y2="449.71" gradientUnits="userSpaceOnUse">
<stop stop-color="white"/>
<stop offset="1" stop-color="white" stop-opacity="0"/>
</linearGradient>
<linearGradient id="paint6_linear_11_10" x1="274.24" y1="364.959" x2="333.342" y2="491.014" gradientUnits="userSpaceOnUse">
<stop stop-color="white"/>
<stop offset="1" stop-color="white" stop-opacity="0"/>
</linearGradient>
<linearGradient id="paint7_linear_11_10" x1="284.339" y1="221.63" x2="325.508" y2="332.85" gradientUnits="userSpaceOnUse">
<stop stop-color="white"/>
<stop offset="1" stop-color="white" stop-opacity="0"/>
</linearGradient>
<linearGradient id="paint8_linear_11_10" x1="173.368" y1="169.817" x2="72.6186" y2="248.715" gradientUnits="userSpaceOnUse">
<stop stop-color="white"/>
<stop offset="1" stop-color="white" stop-opacity="0"/>
</linearGradient>
<linearGradient id="paint9_linear_11_10" x1="166.829" y1="340.904" x2="132.497" y2="368.002" gradientUnits="userSpaceOnUse">
<stop stop-color="white"/>
<stop offset="1" stop-color="white" stop-opacity="0"/>
</linearGradient>
</defs>
</svg>
